<svg width="731.67004" height="550.61784" xmlns="http://www.w3.org/2000/svg">

 <g>
  <title>Layer 1</title>
  <circle id="svg_1" fill="#ff6884" r="46.02133" cy="132.62732" cx="317.68169"/>
  <g id="svg_2">
   <path id="svg_3" fill="#3f3d56" d="m0,334.13393c0,0.66003 0.53003,1.19 1.19006,1.19l729.28998,0c0.65997,0 1.19,-0.52997 1.19,-1.19c0,-0.65997 -0.53003,-1.19 -1.19,-1.19l-729.28998,0c-0.66003,0 -1.19006,0.53003 -1.19006,1.19z"/>
   <g id="svg_4">
    <polygon id="svg_5" fill="#a0616a" points="466.98463 81.60598 470.81118 130.55703 526.26809 107.39339 494.98463 57.60598 466.98463 81.60598"/>
    <circle id="svg_6" fill="#a0616a" r="41.33858" cy="55.18079" cx="465.32321"/>
    <polygon id="svg_7" fill="#a0616a" points="387.98463 440.60598 394.98463 503.39339 345.98463 496.60598 361.98463 438.60598 387.98463 440.60598"/>
    <polygon id="svg_8" fill="#a0616a" points="578.98463 449.60598 585.98463 512.39339 536.98463 505.60598 552.98463 447.60598 578.98463 449.60598"/>
    <path id="svg_9" fill="#000000" d="m462.48463,260.10598c-0.66897,0 -54.14584,2.68515 -89.47714,4.46286c-16.72275,0.84141 -29.45202,15.31527 -28.15459,32.00884l12.63173,162.5283l36,1l0.87795,-131l71.12205,4l-3,-73z"/>
    <path id="svg_10" fill="#000000" d="m619.48463,259.10598s9,69 2,76c-7,7 -226.5,-5.5 -226.5,-5.5c0,0 48.15354,-69.53704 56.82677,-71.51852c8.67323,-1.98148 146.67323,-8.98148 146.67323,-8.98148l21,10z"/>
    <path fill="#a0616a" d="m335.12666,172.23337c-8.35907,-11.69074 -9.10267,-25.48009 -1.66174,-30.79863c7.44093,-5.31854 20.24665,-0.15219 28.60713,11.54383c3.40375,4.62627 5.65012,10.00041 6.55111,15.67279l34.79215,49.9814l-19.8001,13.70807l-35.7745,-48.83421c-5.07753,-2.68845 -9.43721,-6.55406 -12.71405,-11.27326l0,0.00001z" id="uuid-395a52e4-5c72-4314-a9bf-6720c6920e4c-363"/>
    <path fill="#a0616a" d="m465.67391,331.01678c-12.74718,6.63753 -26.5046,5.44058 -30.72743,-2.67249c-4.22283,-8.11308 2.6878,-20.06802 15.44041,-26.70621c5.05777,-2.72156 10.69376,-4.19231 16.43644,-4.28916l54.36547,-27.44139l10.79681,21.52636l-53.36733,28.57487c-3.37375,4.65048 -7.81238,8.42516 -12.94437,11.00803l0,-0.00001z" id="uuid-2bcb0f29-4cb0-4836-b3e1-c42200070018-364"/>
    <path id="svg_11" fill="#eb2d3a" d="m464.98463,112.60598l51,-21l96,148s-67,15 -90,18c-23,3 -49,-9 -49,-9l-8,-136z"/>
    <path id="svg_12" fill="#000000" d="m526.98463,137.60598l-18.5,-57.70866l24,18.20866s68,45 68,64c0,19 21,77 21,77c0,0 23.5,19.5 15.5,37.5c-8,18 10.5,15.5 12.5,28.5c2,13 -28.5,30.5 -28.5,30.5c0,0 -7.5,-73.5 -31.5,-73.5c-24,0 -62.5,-124.5 -62.5,-124.5z"/>
    <path id="svg_13" fill="#000000" d="m468.56831,111.13035l-25.08368,9.97563s4,70 8,76s18,38 18,38l0,10.42913s-28,8.57087 -27,13.57087c1,5 66,19 66,19c0,0 -13,-40 -21,-53c-8,-13 -18.91632,-113.97563 -18.91632,-113.97563z"/>
    <path id="svg_14" fill="#000000" d="m527.48463,97.10598s56,-3 68,27c12,30 22,128 22,128l-122,66.37402l-21,-32.37402l82,-64l-29,-125z"/>
    <path id="svg_15" fill="#000000" d="m452.48463,121.10598s-29,-4 -34,30s-1.82283,38.5 -1.82283,38.5l-8.17717,19.5l-27,-30l-26,17s47,76 66,74c19,-2 47,-57 47,-57l-16,-92z"/>
    <path id="svg_16" fill="#000000" d="m597.32321,270.83444l-14.83858,209.96121l-38.5,-1.5s-8.5,-198.5 -8.5,-201.5c0,-3 4,-20 29,-21c25,-1 32.83858,14.03879 32.83858,14.03879z"/>
    <path id="svg_17" fill="#000000" d="m542.44617,484.10598s20,-6 23,-2c3,4 20,6 20,6l5,49s-14,10 -16,12s-55,4 -56,-8c-1,-12 14,-27 14,-27l10,-30z"/>
    <path id="svg_18" fill="#000000" d="m394.48463,470.10598s6,-5 8,9c2,14 9,37 -1,40c-10,3 -110,4 -110,-5l0,-9l9,-7l18.00394,-2.869s34.99606,-32.131 38.99606,-32.131c4,0 17,13 17,13l20,-6z"/>
    <path id="svg_19" fill="#000000" d="m505.98463,77.60598s-20,-24 -28,-22s-3,5 -3,5l-20,-22s-16,-6 -31,13c0,0 -9,-16 0,-25c9,-9 12,-8 14,-13c2,-5 16,-9 16,-9c0,0 -0.80315,-7.19685 3.59843,-3.59843s15.3937,3.59843 15.3937,3.59843c0,0 0.06299,-4 4.53543,0s9.47244,2 9.47244,2c0,0 0,6.92126 3.5,6.96063c3.5,0.03937 9.5,-4.96063 10.5,-0.96063s8,6 9,18s-4,47 -4,47z"/>
   </g>
  </g>
  <g id="svg_20">
   <rect id="svg_21" fill="#292838" ry="17.53429" rx="17.53429" height="35.06862" width="197.88719" y="104.21421" x="100.73115"/>
   <rect id="svg_22" fill="#fff" height="175.34308" width="159.89619" y="27.60598" x="121.39658"/>
   <path id="svg_23" fill="#3f3d56" d="m282.29322,203.94876l-161.89648,0l0,-177.34278l161.89648,0l0,177.34278zm-159.89648,-2l157.89648,0l0,-173.34278l-157.89648,0l0,173.34278z"/>
   <rect id="svg_24" fill="#2d2c3a" ry="23.37905" rx="23.37905" height="46.75816" width="227.11104" y="129.68071" x="87.78916"/>
   <ellipse id="svg_25" fill="#3f3d56" ry="13.9857" rx="4.17484" cy="154.52098" cx="328.25967"/>
   <ellipse id="svg_26" fill="#3f3d56" ry="13.56821" rx="5.0098" cy="153.26853" cx="69.41988"/>
   <rect id="svg_27" fill="#3f3d56" height="2.92238" width="28.80636" y="151.38985" x="70.67234"/>
   <rect id="svg_28" fill="#3f3d56" height="4.17484" width="23.37908" y="152.6423" x="302.37569"/>
   <path id="svg_29" fill="#14141c" d="m298.33424,334.95657l-172.89551,0c-13.66895,0 -24.79004,-11.12109 -24.79004,-24.79004l0,-123.84082c0,-13.66895 11.12109,-24.79004 24.79004,-24.79004l172.89551,0c13.66895,0 24.78906,11.12109 24.78906,24.79004l0,123.84082c0,13.66895 -11.12012,24.79004 -24.78906,24.79004z"/>
   <circle id="svg_30" fill="#eb2d3a" r="5.42728" cy="255.34325" cx="119.51791"/>
   <circle id="svg_31" fill="#eb2d3a" r="5.42729" cy="272.87756" cx="127.03261"/>
   <circle id="svg_32" fill="#eb2d3a" r="5.42729" cy="288.74193" cx="132.4599"/>
   <circle id="svg_33" fill="#eb2d3a" r="5.42729" cy="305.02379" cx="142.06202"/>
   <circle id="svg_34" fill="#eb2d3a" r="5.42729" cy="305.02379" cx="157.92639"/>
   <circle id="svg_35" fill="#eb2d3a" r="5.42729" cy="305.02379" cx="173.79077"/>
   <circle id="svg_36" fill="#eb2d3a" r="5.42729" cy="305.02379" cx="189.65514"/>
   <circle id="svg_37" fill="#eb2d3a" r="5.42729" cy="305.02379" cx="205.51951"/>
   <circle id="svg_38" fill="#eb2d3a" r="5.42729" cy="305.02379" cx="221.38389"/>
   <circle id="svg_39" fill="#eb2d3a" r="5.42729" cy="305.02379" cx="237.24826"/>
   <circle id="svg_40" fill="#eb2d3a" r="5.42728" cy="305.02379" cx="253.11264"/>
   <circle id="svg_41" fill="#eb2d3a" r="5.42729" cy="305.02379" cx="268.97701"/>
   <circle id="svg_42" fill="#eb2d3a" r="5.42729" cy="305.02379" cx="284.84139"/>
   <circle id="svg_43" fill="#eb2d3a" r="5.42729" cy="288.74193" cx="148.61651"/>
   <circle id="svg_44" fill="#eb2d3a" r="5.42729" cy="288.74193" cx="164.77312"/>
   <circle id="svg_45" fill="#eb2d3a" r="5.42729" cy="288.74193" cx="180.92974"/>
   <circle id="svg_46" fill="#eb2d3a" r="5.42729" cy="288.74193" cx="197.08635"/>
   <circle id="svg_47" fill="#eb2d3a" r="5.42729" cy="288.74193" cx="213.24296"/>
   <circle id="svg_48" fill="#eb2d3a" r="5.42729" cy="288.74193" cx="229.39957"/>
   <circle id="svg_49" fill="#eb2d3a" r="5.42729" cy="288.74193" cx="245.55619"/>
   <circle id="svg_50" fill="#eb2d3a" r="5.42729" cy="288.74193" cx="261.7128"/>
   <circle id="svg_51" fill="#eb2d3a" r="5.42729" cy="288.74193" cx="277.86941"/>
   <circle id="svg_52" fill="#eb2d3a" r="5.42729" cy="288.74193" cx="294.61425"/>
   <circle id="svg_53" fill="#eb2d3a" r="5.42729" cy="272.87756" cx="143.31447"/>
   <circle id="svg_54" fill="#eb2d3a" r="5.42729" cy="272.87756" cx="159.59633"/>
   <circle id="svg_55" fill="#eb2d3a" r="5.42729" cy="272.87756" cx="175.87818"/>
   <circle id="svg_56" fill="#eb2d3a" r="5.42729" cy="272.87756" cx="192.16004"/>
   <circle id="svg_57" fill="#eb2d3a" r="5.42729" cy="272.87756" cx="208.4419"/>
   <circle id="svg_58" fill="#eb2d3a" r="5.42729" cy="272.87756" cx="224.72376"/>
   <circle id="svg_59" fill="#eb2d3a" r="5.42729" cy="272.87756" cx="241.00561"/>
   <circle id="svg_60" fill="#eb2d3a" r="5.42728" cy="272.87756" cx="257.28747"/>
   <circle id="svg_61" fill="#eb2d3a" r="5.42729" cy="272.87756" cx="273.56933"/>
   <circle id="svg_62" fill="#eb2d3a" r="5.42729" cy="272.87756" cx="289.85119"/>
   <circle id="svg_63" fill="#eb2d3a" r="5.42729" cy="272.87756" cx="306.13305"/>
   <circle id="svg_64" fill="#eb2d3a" r="5.42728" cy="255.34325" cx="135.79977"/>
   <circle id="svg_65" fill="#eb2d3a" r="5.42728" cy="255.34325" cx="152.08162"/>
   <circle id="svg_66" fill="#eb2d3a" r="5.42728" cy="255.34325" cx="168.36348"/>
   <circle id="svg_67" fill="#eb2d3a" r="5.42728" cy="255.34325" cx="184.64534"/>
   <circle id="svg_68" fill="#eb2d3a" r="5.42728" cy="255.34325" cx="200.9272"/>
   <circle id="svg_69" fill="#eb2d3a" r="5.42728" cy="255.34325" cx="217.20905"/>
   <circle id="svg_70" fill="#eb2d3a" r="5.42728" cy="255.34325" cx="233.49091"/>
   <circle id="svg_71" fill="#eb2d3a" r="5.42728" cy="255.34325" cx="249.77277"/>
   <circle id="svg_72" fill="#eb2d3a" r="5.42728" cy="255.34325" cx="266.05463"/>
   <circle id="svg_73" fill="#eb2d3a" r="5.42728" cy="255.34325" cx="282.33648"/>
   <circle id="svg_74" fill="#eb2d3a" r="5.42728" cy="255.34325" cx="298.61834"/>
   <circle id="svg_75" fill="#eb2d3a" r="21.29166" cy="184.78853" cx="124.11023"/>
   <circle id="svg_76" fill="#eb2d3a" r="21.29166" cy="184.78853" cx="296.94841"/>
   <path id="svg_77" fill="#eb2d3a" d="m176.52231,176.43886l65.70058,0c2.9447,0 5.62784,1.69069 6.89874,4.34702l17.73104,37.05981c2.42863,5.0761 -1.27158,10.94834 -6.89874,10.94834l-96.13887,0c-5.24759,0 -8.93627,-5.16429 -7.23423,-10.12818l12.70725,-37.05981c1.05987,-3.09102 3.96655,-5.16717 7.23423,-5.16717l0,-0.00001z"/>
  </g>
  <rect id="svg_78" fill="#3f3d56" height="2" width="96.41699" y="56.60598" x="155.56764"/>
  <rect id="svg_79" fill="#3f3d56" height="2" width="96.41699" y="74.60598" x="155.56764"/>
  <rect id="svg_80" fill="#3f3d56" height="2" width="96.41699" y="92.60598" x="155.56764"/>
 </g>
</svg>